<svg role="img" viewBox="0 0 24 24" fill="currentColor" xmlns="http://www.w3.org/2000/svg"><title>WordPress</title><path d="M21.469 6.825c.84 1.537 1.318 3.3 1.318 5.175 0 3.979-2.156 7.456-5.363 9.325l3.295-9.527c.615-1.54.82-2.771.82-3.864 0-.405-.026-.78-.07-1.11m-7.981.105c.647-.03 1.232-.105 1.232-.105.582-.075.514-.93-.067-.899 0 0-1.755.135-2.88.135-1.064 0-2.85-.15-2.85-.15-.585-.03-.661.855-.075.885 0 0 .54.061 1.125.09l1.68 4.605-2.37 7.08L5.354 6.9c.649-.03 1.234-.1 1.234-.1.585-.075.516-.93-.065-.896 0 0-1.746.138-2.874.138-.2 0-.438-.008-.69-.015C4.911 3.15 8.235 1.215 12 1.215c2.809 0 5.365 1.072 7.26 2.805-.205.007-.4.015-.568.015-1.065 0-2.715-.135-2.715-.135-.585-.03-.66.855-.075.885 0 0 .54.06 1.125.09l2.36 6.48-1.68-4.605M12 22.785c-1.53 0-2.978-.33-4.275-.922l4.38-12.72 4.38 12.72c-1.297.592-2.745.922-4.285.922zM1.215 12c0-2.31.81-4.432 2.16-6.105L9.36 21.63C4.695 19.98 1.215 16.41 1.215 12z"/></svg>
